{"title":"Panic Room (2002) BRrip 720p x264 Dual Audio [Eng DD 5.1-Hindi]","uid":11188053,"size":916309262,"categoryP":"video","categoryS":"hd___movies","magnet":"?xt=urn:btih:07751a414dd7d4305809fc629526585d7cc03a34&amp;dn=Panic+Room+%282002%29+BRrip+720p+x264+Dual+Audio+%5BEng+DD+5.1-Hindi%5D+&amp;tr=udp%3A%2F%2Ftracker.openbittorrent.com%3A80&amp;tr=udp%3A%2F%2Fopen.demonii.com%3A1337&amp;tr=udp%3A%2F%2Ftracker.coppersurfer.tk%3A6969&amp;tr=udp%3A%2F%2Fexodus.desync.com%3A6969","seeders":13,"leechers":4,"uploader":"Xdesiars","files":5,"time":1412954736,"description":"Format                                   : Matroska\nFormat version                           : Version 2\nFile size                                : 868 MiB\nDuration                                 : 1h 51mn\nOverall bit rate                         : 1 084 Kbps\nMovie name                               : Panic Room (2002) by XdesiArsenal [ExD-XMR]\nEncoded date                             : UTC 2014-10-09 17:04:20\nWriting application                      : mkvmerge v5.0.1 ('Es ist Sommer') built on Nov 23 2011 20:48:57\nWriting library                          : libebml v1.2.2 + libmatroska v1.3.0\n\nVideo\nID                                       : 1\nFormat                                   : AVC\nFormat/Info                              : Advanced Video Codec\nFormat profile                           : &lt;a class=&quot;__cf_email__&quot; href=&quot;/cdn-cgi/l/email-protection&quot; data-cfemail=&quot;175a767e79575b243926&quot;&gt;[email&amp;#160;protected]&lt;/a&gt;&lt;script cf-hash='f9e31' type=&quot;text/javascript&quot;&gt;\n/* &lt;![CDATA[ */!function(){try{var t=&quot;currentScript&quot;in document?document.currentScript:function(){for(var t=document.getElementsByTagName(&quot;script&quot;),e=t.length;e--;)if(t[e].getAttribute(&quot;cf-hash&quot;))return t[e]}();if(t&amp;&amp;t.previousSibling){var e,r,n,i,c=t.previousSibling,a=c.getAttribute(&quot;data-cfemail&quot;);if(a){for(e=&quot;&quot;,r=parseInt(a.substr(0,2),16),n=2;a.length-n;n+=2)i=parseInt(a.substr(n,2),16)^r,e+=String.fromCharCode(i);e=document.createTextNode(e),c.parentNode.replaceChild(e,c)}}}catch(u){}}();/* ]]&gt; */&lt;/script&gt;\nFormat settings, CABAC                   : Yes\nFormat settings, ReFrames                : 4 frames\nMuxing mode                              : Header stripping\nCodec ID                                 : V_MPEG4/ISO/AVC\nDuration                                 : 1h 51mn\nBit rate                                 : 647 Kbps\nWidth                                    : 1 280 pixels\nHeight                                   : 528 pixels\nDisplay aspect ratio                     : 2.40:1\nFrame rate mode                          : Constant\nFrame rate                               : 23.976 fps\nColor space                              : YUV\nChroma subsampling                       : 4:2:0\nBit depth                                : 8 bits\nScan type                                : Progressive\nBits/(Pixel*Frame)                       : 0.040\nStream size                              : 518 MiB (60%)\nTitle                                    : Panic Room (2002) by XdesiArsenal [ExD-XMR]\nWriting library                          : x264 core 112\nLanguage                                 : English\nDefault                                  : No\nForced                                   : No\nColor primaries                          : BT.709\nTransfer characteristics                 : BT.709\nMatrix coefficients                      : BT.709\n\nAudio #1\nID                                       : 2\nFormat                                   : AC-3\nFormat/Info                              : Audio Coding 3\nMode extension                           : CM (complete main)\nFormat settings, Endianness              : Big\nMuxing mode                              : Header stripping\nCodec ID                                 : A_AC3\nDuration                                 : 1h 51mn\nBit rate mode                            : Constant\nBit rate                                 : 256 Kbps\nChannel(s)                               : 6 channels\nChannel positions                        : Front: L C R, Side: L R, LFE\nSampling rate                            : 48.0 KHz\nBit depth                                : 16 bits\nCompression mode                         : Lossy\nStream size                              : 205 MiB (24%)\nTitle                                    : XdesiArsenal\nLanguage                                 : English\nDefault                                  : No\nForced                                   : No\n\nAudio #2\nID                                       : 3\nFormat                                   : AC-3\nFormat/Info                              : Audio Coding 3\nMode extension                           : CM (complete main)\nFormat settings, Endianness              : Big\nMuxing mode                              : Header stripping\nCodec ID                                 : A_AC3\nDuration                                 : 1h 51mn\nBit rate mode                            : Constant\nBit rate                                 : 160 Kbps\nChannel(s)                               : 2 channels\nChannel positions                        : Front: L R\nSampling rate                            : 48.0 KHz\nBit depth                                : 16 bits\nCompression mode                         : Lossy\nDelay relative to video                  : 41s 0ms\nStream size                              : 128 MiB (15%)\nTitle                                    : XdesiArsenal\nLanguage                                 : Hindi\nDefault                                  : No\nForced                                   : No\n\nMenu\n00:00:00.000                             : en:Chapter 1\n00:06:34.019                             : en:Chapter 2\n00:15:24.007                             : en:Chapter 3\n00:20:20.053                             : en:Chapter 4\n00:26:53.071                             : en:Chapter 5\n00:32:01.046                             : en:Chapter 6\n00:42:31.035                             : en:Chapter 7\n00:48:04.077                             : en:Chapter 8\n00:55:51.044                             : en:Chapter 9\n01:04:55.088                             : en:Chapter 10\n01:08:27.091                             : en:Chapter 11\n01:11:57.093                             : en:Chapter 12\n01:17:33.096                             : en:Chapter 13\n01:26:42.103                             : en:Chapter 14\n01:33:08.827                             : en:Chapter 15\n01:42:42.901                             : en:Chapter 16\n","torrent":{"xt":"urn:btih:07751a414dd7d4305809fc629526585d7cc03a34","amp;dn":"Panic+Room+%282002%29+BRrip+720p+x264+Dual+Audio+%5BEng+DD+5.1-Hindi%5D+","amp;tr":["udp%3A%2F%2Ftracker.openbittorrent.com%3A80","udp%3A%2F%2Fopen.demonii.com%3A1337","udp%3A%2F%2Ftracker.coppersurfer.tk%3A6969","udp%3A%2F%2Fexodus.desync.com%3A6969"],"infoHash":"07751a414dd7d4305809fc629526585d7cc03a34","infoHashBuffer":{"type":"Buffer","data":[7,117,26,65,77,215,212,48,88,9,252,98,149,38,88,93,124,192,58,52]},"announce":[],"urlList":[]}}